<?xml version='1.0' encoding='utf-8'?>
<svg xmlns:xlink="http://www.w3.org/1999/xlink" xmlns="http://www.w3.org/2000/svg" width="605px" height="284px" style="shape-rendering:geometricPrecision; text-rendering:geometricPrecision; image-rendering:optimizeQuality; fill-rule:evenodd; clip-rule:evenodd" viewBox="0 0 605 283.999"> <defs> <style type="text/css">  .fil1 {fill:url(#id0);fill-rule:nonzero} .fil0 {fill:url(#id1);fill-rule:nonzero} .fil3 {fill:url(#id2);fill-rule:nonzero} .fil2 {fill:url(#id3);fill-rule:nonzero}  </style> <linearGradient id="id0" gradientUnits="userSpaceOnUse" x1="266.683" y1="268.918" x2="234.127" y2="147.441"> <stop offset="0" style="stop-color:#450445"/> <stop offset="0.0784314" style="stop-color:#660066"/> <stop offset="0.180392" style="stop-color:#FF0066"/> <stop offset="0.729412" style="stop-color:#FFCC00"/> <stop offset="1" style="stop-color:#450445"/> </linearGradient> <linearGradient id="id1" gradientUnits="userSpaceOnUse" xlink:href="#id0" x1="338.113" y1="15.0414" x2="370.484" y2="135.824"> </linearGradient> <linearGradient id="id2" gradientUnits="userSpaceOnUse" x1="116.391" y1="138.765" x2="283.352" y2="68.5195"> <stop offset="0" style="stop-color:#450445"/> <stop offset="0.168627" style="stop-color:#8A0351"/> <stop offset="0.411765" style="stop-color:#FF0066"/> <stop offset="1" style="stop-color:#FFCC00"/> </linearGradient> <linearGradient id="id3" gradientUnits="userSpaceOnUse" xlink:href="#id2" x1="488.608" y1="145.233" x2="321.647" y2="215.479"> </linearGradient> </defs> <g id="Layer_x0020_1"> <metadata id="CorelCorpID_0Corel-Layer"/> <g id="_196521120"> <path id="_196521840" class="fil0" d="M259.364 105.498c25.5568,-44.3422 53.4403,-72.8813 110.045,-85.5333 6.58466,4.57442 23.7107,6.47128 29.5583,11.3126 21.2705,17.6079 37.7788,36.9095 50.2678,57.1938 -27.9768,9.96617 -53.5738,24.4194 -75.7691,42.43 -10.454,-9.98034 -22.3749,-17.8075 -35.719,-23.1071 -10.5874,-4.20355 -21.6213,-6.63191 -32.9458,-7.40789 -3.82914,-0.479529 -7.71971,-0.590553 -11.6634,-0.227953 -11.074,0.321261 -22.3701,2.13071 -33.7737,5.33978z"/> <g> <path id="_195944960" class="fil1" d="M345.635 178.5c-25.5568,44.3434 -53.4415,72.8825 -110.046,85.5345 -6.58348,-4.57442 -23.7107,-6.47364 -29.5595,-11.315 -21.6119,-17.8902 -38.295,-37.5296 -50.8549,-58.1706 27.8847,-9.92483 53.4084,-24.306 75.5541,-42.2245 10.6453,10.3488 22.8355,18.4418 36.5233,23.8772 10.5874,4.20474 21.6213,6.63427 32.9434,7.41144 3.83032,0.479529 7.72089,0.589372 11.6658,0.226772 11.0717,-0.322442 22.3678,-2.12953 33.7737,-5.33978z"/> <path id="_196519296" class="fil2" d="M205.443 252.235c160.557,-42.2281 217.473,-245.991 399.37,-110.235 -156.162,38.2525 -251.12,212.468 -399.37,110.235z"/> </g> <path id="_196521240" class="fil3" d="M399.556 31.7635c-160.559,42.2281 -217.475,245.991 -399.37,110.236 156.162,-38.2536 251.12,-212.469 399.37,-110.236z"/> </g> </g> </svg>